<svg version="1" xmlns="http://www.w3.org/2000/svg" width="2113.333" height="2113.333" viewBox="0 0 1585.000000 1585.000000"><path d="M771.8 190.5c-.2.1-4.2.5-9 .9-4.7.3-10.6.9-13 1.2-7.2.9-23.2 3.3-25.3 3.8-1.1.3-6.5 1.4-12 2.6-15.2 3.1-36 9.4-52.3 15.6-14.5 5.5-49.3 22-56.2 26.6-2 1.2-5.1 3.2-7 4.2-5.2 2.8-27.5 18.1-35 24-22.8 17.7-46 40.2-63.5 61.6-9.9 12.1-12.2 15.1-20.9 27.8l-7.8 11.3-6.1-3.5c-7.9-4.4-26.2-13.6-27-13.6-.4 0-3-1.1-5.9-2.4-16.7-7.6-48.9-16.9-69.3-20.1-19.2-2.9-31.4-3.8-51-3.9-11.8 0-31.6 1-36.5 1.8-1.4.3-7.2 1.2-12.9 2.1-44.9 6.9-92.4 26.5-130 53.4-19.8 14.2-42.9 35.3-56 51.1-3 3.6-5.7 6.7-6 7-.4.3-2 2.3-3.7 4.5-1.6 2.2-3.3 4.4-3.7 5C44 474 24.6 511.4 15.2 541c-5.3 16.9-6 19.3-8.6 31.5C1.7 596.2.5 608.9.5 637c.1 25.9.6 33.5 4.1 55.7.5 3.4 2.2 11.6 4.4 21.3 7.4 32.4 24.2 70.3 44.8 101 26 38.5 62.2 72.1 104.2 96.3 6.3 3.7 28.3 14.3 35.5 17.2 3.9 1.5 8.4 3.3 10 4 1.7.7 6.6 2.4 11 3.8 27.2 8.7 51 13.3 79.8 15.3 9.8.6 982.7.6 995.2 0 12.6-.7 18.8-1.4 29.5-3.1 4.7-.8 10.3-1.7 12.5-2 2.2-.4 4.8-.8 5.7-1.1.9-.3 2.5-.7 3.5-.9 16.2-3.4 41-11.4 56.9-18.5 16.6-7.4 40.4-20.6 51.9-28.8 9.2-6.6 20-14.7 21.6-16.2.8-.8 4.4-4 8-7 15.1-13 35.8-35.7 46-50.5 1.9-2.8 3.6-5.2 3.9-5.5 1.4-1.2 10.2-15.4 15.6-25 13.7-24.2 23.5-48.4 30.4-75.5 2.6-10.5 5.6-25.1 6.6-32.5.1-1.3.6-4.5.9-7 1.5-10.8 1.7-14.7 2-37.5.3-30.1-1.5-47.8-8-76-5.5-24.4-19.5-59.8-31.3-79.5-1.2-1.9-3.1-5.1-4.2-7-15.1-26.1-42.2-57.8-66.5-78-4.9-4.1-9.2-7.7-9.5-8-.3-.3-5-3.8-10.5-7.7-30.2-21.4-64.2-37.5-99.5-47.2-8.7-2.4-29.5-6.8-36-7.6-10.4-1.2-12.9-1.5-20.5-2.1-15.6-1.3-47.9-.7-60.5 1.1-1.4.2-4.7.6-7.5 1-13.3 1.7-38.5 7.5-51.5 11.9-16.1 5.5-18.7 6.4-23 8.4-2.5 1.1-7 3-10 4.3-5.1 2.2-9.5 4.4-24.9 12.7l-6 3.2-6.3-9.2c-7.3-11-21.5-29.3-30.7-39.8-17.7-20.2-46.4-46.2-64.1-58.3-2.5-1.7-4.7-3.3-5-3.6-.6-.8-13.8-9.3-24.6-15.8-9.4-5.8-33.1-17.9-42.4-21.8-3.6-1.4-7.8-3.2-9.5-3.9-1.6-.8-6.4-2.6-10.5-4.1-4.1-1.5-9.2-3.3-11.3-4.1-13.1-4.9-43.9-12.3-62.6-15-2.5-.4-5.4-.8-6.3-1-.9-.1-4.8-.6-8.5-.9-3.7-.4-7.7-.9-8.8-1.2-2.2-.5-52.1-1.3-52.7-.8zM304 1097v76h977v-152H304v76zM304 1318v76h977v-152H304v76z"/></svg>